<svg width="9" height="15" viewBox="0 0 9 15" fill="none" xmlns="http://www.w3.org/2000/svg">
<path fill-rule="evenodd" clip-rule="evenodd" d="M0.343598 8.31037C0.123592 8.0991 0 7.81259 0 7.51384C0 7.2151 0.123592 6.92859 0.343598 6.71731L6.98234 0.343948C7.09059 0.236343 7.22009 0.150514 7.36327 0.0914678C7.50644 0.0324221 7.66044 0.00134247 7.81626 4.25376e-05C7.97208 -0.00125739 8.12661 0.0272487 8.27084 0.0838968C8.41506 0.140545 8.54609 0.224201 8.65628 0.329984C8.76647 0.435766 8.8536 0.561557 8.91261 0.700016C8.97162 0.838475 9.00131 0.98683 8.99996 1.13642C8.9986 1.28602 8.96623 1.43385 8.90472 1.57131C8.84322 1.70876 8.75382 1.83308 8.64173 1.93701L2.83269 7.51384L8.64173 13.0907C8.8555 13.3032 8.97379 13.5878 8.97112 13.8832C8.96844 14.1786 8.84502 14.4611 8.62744 14.67C8.40985 14.8789 8.11551 14.9974 7.80781 15C7.50011 15.0025 7.20367 14.889 6.98234 14.6837L0.343598 8.31037Z" fill="#F080FF"/>
</svg>
