<svg width="26" height="30" viewBox="0 0 26 30" fill="none" xmlns="http://www.w3.org/2000/svg">
<path fill-rule="evenodd" clip-rule="evenodd" d="M5.95455 2.72727C5.95455 1.22104 7.17559 0 8.68182 0H16.8636C18.3699 0 19.5909 1.22104 19.5909 2.72727H20.9545C22.0395 2.72727 23.0801 3.15828 23.8473 3.92547C24.6144 4.69267 25.0455 5.7332 25.0455 6.81818V25.9091C25.0455 26.9941 24.6144 28.0346 23.8473 28.8018C23.0801 29.569 22.0395 30 20.9545 30H4.59091C3.50593 30 2.46539 29.569 1.6982 28.8018C0.931005 28.0346 0.5 26.9941 0.5 25.9091V6.81818C0.5 5.73321 0.931005 4.69267 1.6982 3.92547C2.46539 3.15828 3.50593 2.72727 4.59091 2.72727H5.95455ZM5.95455 5.45455H4.59091C4.22925 5.45455 3.8824 5.59821 3.62667 5.85395C3.37094 6.10968 3.22727 6.45652 3.22727 6.81818V25.9091C3.22727 26.2708 3.37094 26.6176 3.62667 26.8733C3.8824 27.1291 4.22925 27.2727 4.59091 27.2727H20.9545C21.3162 27.2727 21.663 27.1291 21.9188 26.8733C22.1745 26.6176 22.3182 26.2707 22.3182 25.9091V6.81818C22.3182 6.45652 22.1745 6.10968 21.9188 5.85395C21.663 5.59821 21.3162 5.45455 20.9545 5.45455H19.5909C19.5909 6.96078 18.3699 8.18182 16.8636 8.18182H8.68182C7.17559 8.18182 5.95455 6.96078 5.95455 5.45455ZM16.8636 5.45455H8.68182V2.72727H16.8636V5.45455Z" fill="#FAFAFA"/>
</svg>
