<svg width="20" height="22" viewBox="0 0 20 22" fill="none" xmlns="http://www.w3.org/2000/svg">
<path d="M0.833333 3.92858H19.1667H0.833333Z" fill="#F080FF"/>
<path fill-rule="evenodd" clip-rule="evenodd" d="M7.91423 1.57143C7.85978 1.57128 7.80585 1.58128 7.75552 1.60085C7.70519 1.62043 7.65946 1.64919 7.62097 1.68549C7.58247 1.72178 7.55196 1.7649 7.5312 1.81235C7.51044 1.8598 7.49984 1.91066 7.5 1.96199L7.5 1.96429V3.14286H12.5V1.96429L12.5 1.96199C12.5002 1.91066 12.4896 1.8598 12.4688 1.81235C12.448 1.7649 12.4175 1.72178 12.379 1.68549C12.3405 1.64919 12.2948 1.62043 12.2445 1.60085C12.1942 1.58128 12.1402 1.57128 12.0858 1.57143L12.0833 1.57143H7.91667L7.91423 1.57143ZM3.38704 4.71429L4.37338 19.5938C4.37357 19.5967 4.37374 19.5996 4.3739 19.6025C4.40272 20.1313 4.77507 20.4286 5.20833 20.4286H14.7917C15.2207 20.4286 15.5914 20.138 15.6266 19.5949L16.613 4.71429H3.38704ZM17.4923 3.14286H14.1667V1.96546C14.1673 1.70737 14.1139 1.45171 14.0095 1.21312C13.905 0.974182 13.7514 0.757086 13.5575 0.574319C13.3637 0.391552 13.1334 0.246724 12.88 0.148164C12.627 0.0497668 12.3559 -0.00058008 12.0823 5.04211e-06H7.91773C7.64407 -0.00058008 7.37296 0.0497666 7.11997 0.148164C6.86655 0.246726 6.6363 0.391554 6.44245 0.574319C6.24861 0.757084 6.09501 0.97418 5.99047 1.21312C5.88611 1.45166 5.83271 1.70727 5.83333 1.96529V3.14286H2.5077C2.5031 3.14283 2.4985 3.14283 2.4939 3.14286H0.833333C0.373096 3.14286 0 3.49464 0 3.92858C0 4.36251 0.373096 4.71429 0.833333 4.71429H1.71712L2.70969 19.6879C2.78209 20.9729 3.80998 22 5.20833 22H14.7917C16.2033 22 17.2075 20.9638 17.2901 19.6909L17.2901 19.6908L18.2829 4.71429H19.1667C19.6269 4.71429 20 4.36251 20 3.92858C20 3.49464 19.6269 3.14286 19.1667 3.14286H17.5061C17.5015 3.14283 17.4969 3.14283 17.4923 3.14286ZM6.22026 6.28622C6.6802 6.27073 7.06638 6.60973 7.0828 7.04339L7.49947 18.0434C7.5159 18.477 7.15635 18.8412 6.69641 18.8566C6.23647 18.8721 5.85029 18.5331 5.83386 18.0995L5.4172 7.09948C5.40077 6.66581 5.76031 6.30171 6.22026 6.28622ZM13.7797 6.28622C14.2397 6.30171 14.5992 6.66581 14.5828 7.09948L14.1661 18.0995C14.1497 18.5331 13.7635 18.8721 13.3036 18.8566C12.8436 18.8412 12.4841 18.477 12.5005 18.0434L12.9172 7.04339C12.9336 6.60973 13.3198 6.27073 13.7797 6.28622ZM10 6.28572C10.4602 6.28572 10.8333 6.63749 10.8333 7.07143V18.0714C10.8333 18.5054 10.4602 18.8571 10 18.8571C9.53976 18.8571 9.16667 18.5054 9.16667 18.0714V7.07143C9.16667 6.63749 9.53976 6.28572 10 6.28572Z" fill="#F080FF"/>
</svg>
