<svg width="22" height="22" viewBox="0 0 22 22" fill="none" xmlns="http://www.w3.org/2000/svg">
<path fill-rule="evenodd" clip-rule="evenodd" d="M11 0C11.675 0 12.2222 0.547207 12.2222 1.22222V12.9382L15.0246 10.1358C15.502 9.65845 16.2758 9.65845 16.7531 10.1358C17.2304 10.6131 17.2304 11.3869 16.7531 11.8642L11.8642 16.7531C11.3869 17.2304 10.6131 17.2304 10.1358 16.7531L5.24687 11.8642C4.76956 11.3869 4.76956 10.6131 5.24687 10.1358C5.72418 9.65845 6.49805 9.65845 6.97535 10.1358L9.77778 12.9382V1.22222C9.77778 0.547207 10.325 0 11 0ZM1.22222 14.6667C1.89724 14.6667 2.44444 15.2139 2.44444 15.8889V17.1111C2.44444 17.7594 2.70198 18.3812 3.16041 18.8396C3.61883 19.298 4.24058 19.5556 4.88889 19.5556H17.1111C17.7594 19.5556 18.3812 19.298 18.8396 18.8396C19.298 18.3812 19.5556 17.7594 19.5556 17.1111V15.8889C19.5556 15.2139 20.1028 14.6667 20.7778 14.6667C21.4528 14.6667 22 15.2139 22 15.8889V17.1111C22 18.4077 21.4849 19.6512 20.5681 20.5681C19.6512 21.4849 18.4077 22 17.1111 22H4.88889C3.59228 22 2.34877 21.4849 1.43192 20.5681C0.515078 19.6512 0 18.4077 0 17.1111V15.8889C0 15.2139 0.547207 14.6667 1.22222 14.6667Z" fill="#FAFAFA"/>
</svg>
