<svg width="22" height="22" viewBox="0 0 22 22" fill="none" xmlns="http://www.w3.org/2000/svg">
<path d="M6.81133 3.77098L4.1926 5.23747L5.65909 2.61874L4.1926 0L6.81133 1.46649L9.43007 0L7.96358 2.61874L9.43007 5.23747L6.81133 3.77098ZM19.3813 14.0364L22 12.5699L20.5335 15.1887L22 17.8074L19.3813 16.3409L16.7625 17.8074L18.229 15.1887L16.7625 12.5699L19.3813 14.0364ZM22 0L20.5335 2.61874L22 5.23747L19.3813 3.77098L16.7625 5.23747L18.229 2.61874L16.7625 0L19.3813 1.46649L22 0ZM12.9287 11.292L15.4846 8.7361L13.2639 6.51542L10.708 9.0713L12.9287 11.292ZM14.0076 5.54125L16.4588 7.99238C16.8673 8.37996 16.8673 9.06083 16.4588 9.46935L4.2345 21.6936C3.82597 22.1021 3.1451 22.1021 2.75753 21.6936L0.306392 19.2425C-0.102131 18.8549 -0.102131 18.174 0.306392 17.7655L12.5307 5.54125C12.9392 5.13272 13.62 5.13272 14.0076 5.54125Z" fill="black"/>
</svg>
