<svg width="22" height="22" viewBox="0 0 22 22" fill="none" xmlns="http://www.w3.org/2000/svg">
<path d="M8.72509 17.2149L6.76301 19.1197C6.24851 19.6337 5.5507 19.9224 4.8231 19.9224C4.09549 19.9224 3.39768 19.6337 2.88319 19.1197C2.36869 18.6057 2.07965 17.9086 2.07965 17.1817C2.07965 16.4548 2.36869 15.7577 2.88319 15.2438L7.91587 10.205C8.40984 9.70996 9.07541 9.42351 9.77487 9.40496C10.4743 9.38641 11.1542 9.63717 11.6738 10.1054L11.8068 10.2161C12.017 10.4217 12.3003 10.5355 12.5945 10.5323C12.8887 10.5292 13.1695 10.4095 13.3753 10.1995C13.5811 9.9895 13.695 9.70643 13.6919 9.41256C13.6888 9.1187 13.5689 8.8381 13.3587 8.63251C13.2961 8.5517 13.2295 8.47408 13.1592 8.39995C12.2129 7.57749 10.9891 7.14509 9.73558 7.19032C8.4821 7.23556 7.2927 7.75506 6.40828 8.64358L1.30909 13.6823C0.442617 14.6245 -0.025994 15.8646 0.00111377 17.1438C0.0282215 18.423 0.548952 19.6422 1.45456 20.5469C2.36017 21.4516 3.58063 21.9718 4.86106 21.9989C6.1415 22.026 7.3829 21.5578 8.32602 20.6922L10.2438 18.8207C10.4331 18.6143 10.5372 18.344 10.5351 18.064C10.533 17.7841 10.4248 17.5154 10.2324 17.3119C10.0399 17.1084 9.77745 16.9853 9.4978 16.9673C9.21815 16.9493 8.94207 17.0378 8.72509 17.2149ZM20.5752 1.44541C19.6427 0.519618 18.3814 0 17.0667 0C15.752 0 14.4907 0.519618 13.5582 1.44541L11.6405 3.31693C11.4511 3.5233 11.3471 3.79365 11.3492 4.07359C11.3513 4.35353 11.4595 4.62228 11.6519 4.82577C11.8444 5.02925 12.1068 5.15237 12.3865 5.17035C12.6661 5.18833 12.9422 5.09984 13.1592 4.92268L15.0769 3.01793C15.5914 2.50395 16.2892 2.2152 17.0168 2.2152C17.7444 2.2152 18.4422 2.50395 18.9567 3.01793C19.4712 3.53191 19.7603 4.22902 19.7603 4.9559C19.7603 5.68278 19.4712 6.37989 18.9567 6.89387L13.9241 11.9326C13.4301 12.4277 12.7645 12.7141 12.065 12.7327C11.3656 12.7512 10.6857 12.5005 10.1662 12.0323L10.0331 11.9215C9.82294 11.7159 9.53958 11.6022 9.24542 11.6053C8.95126 11.6084 8.67039 11.7281 8.46459 11.9381C8.25879 12.1481 8.14492 12.4312 8.14804 12.7251C8.15116 13.0189 8.27101 13.2995 8.48121 13.5051C8.56174 13.5874 8.64686 13.665 8.73617 13.7377C9.6836 14.5577 10.9069 14.9884 12.1596 14.9432C13.4123 14.898 14.6013 14.3802 15.4871 13.494L20.5308 8.45532C21.4635 7.52961 21.9916 6.27287 21.9999 4.9595C22.0082 3.64613 21.496 2.38282 20.5752 1.44541Z" fill="#484B6A"/>
</svg>
