<svg width="62" height="50" viewBox="0 0 62 50" fill="none" xmlns="http://www.w3.org/2000/svg">
<path fill-rule="evenodd" clip-rule="evenodd" d="M33.8885 5.77249C32.1972 5.46741 30.4531 5.46273 28.7595 5.75883C27.0659 6.05492 25.4668 6.64398 24.0523 7.48244C21.194 9.17669 19.2946 11.7588 18.6528 14.5956C18.3666 15.8603 17.2348 16.759 15.9284 16.759C13.1459 16.759 10.5011 17.809 8.56975 19.6417C6.64267 21.4704 5.58444 23.9237 5.58444 26.4543C5.58444 28.9849 6.64267 31.4382 8.56975 33.2669C10.5011 35.0996 13.1459 36.1496 15.9284 36.1496C17.4705 36.1496 18.7206 37.3898 18.7206 38.9197C18.7206 40.4495 17.4705 41.6898 15.9284 41.6898C11.7429 41.6898 7.70536 40.1132 4.70966 37.2704C1.70974 34.4237 0 30.5357 0 26.4543C0 22.3729 1.70974 18.4849 4.70966 15.6382C7.19598 13.2788 10.4 11.7916 13.8106 11.3541C15.1455 7.79091 17.757 4.7602 21.188 2.72651C23.2017 1.53288 25.4456 0.712662 27.7903 0.302737C30.135 -0.107181 32.5454 -0.100769 34.8875 0.32169C37.2297 0.744157 39.4684 1.57645 41.4746 2.7811C43.4812 3.98596 45.222 5.54372 46.5856 7.37762C47.9498 9.21241 48.9078 11.2858 49.3894 13.482C49.6269 14.565 49.7455 15.664 49.7453 16.7628C52.9653 16.8416 56.0366 18.145 58.3198 20.41C60.6762 22.7477 62 25.9184 62 29.2244C62 32.5304 60.6762 35.701 58.3198 38.0387C55.9634 40.3764 52.7674 41.6898 49.435 41.6898H46.6428C45.1007 41.6898 43.8506 40.4495 43.8506 38.9197C43.8506 37.3898 45.1007 36.1496 46.6428 36.1496H49.435C51.2864 36.1496 53.0619 35.42 54.371 34.1212C55.6801 32.8225 56.4156 31.0611 56.4156 29.2244C56.4156 27.3877 55.6801 25.6262 54.371 24.3275C53.0619 23.0288 51.2864 22.2992 49.435 22.2992H46.6428C45.7948 22.2992 44.9928 21.9169 44.4629 21.2601C43.933 20.6033 43.7326 19.7432 43.9184 18.9224C44.2368 17.5151 44.2416 16.0684 43.9327 14.6598C43.6236 13.2504 43.0032 11.8925 42.0915 10.6663C41.1791 9.43922 39.9911 8.3662 38.583 7.52072C37.1746 6.67504 35.5799 6.07757 33.8885 5.77249ZM27.9151 20.3404C29.0055 19.2586 30.7734 19.2586 31.8639 20.3404L40.2405 28.6507C41.331 29.7325 41.331 31.4864 40.2405 32.5682C39.1501 33.65 37.3822 33.65 36.2917 32.5682L32.6817 28.9867V47.2299C32.6817 48.7598 31.4316 50 29.8895 50C28.3474 50 27.0972 48.7598 27.0972 47.2299V28.9867L23.4872 32.5682C22.3968 33.65 20.6288 33.65 19.5384 32.5682C18.448 31.4864 18.448 29.7325 19.5384 28.6507L27.9151 20.3404Z" fill="url(#paint0_linear_130_20580)"/>
<defs>
<linearGradient id="paint0_linear_130_20580" x1="9.5" y1="5.5" x2="50" y2="50" gradientUnits="userSpaceOnUse">
<stop stop-color="#A220BC"/>
<stop offset="1" stop-color="#005875"/>
</linearGradient>
</defs>
</svg>
