<svg width="140" height="100" viewBox="0 0 140 100" fill="none" xmlns="http://www.w3.org/2000/svg">
<g clip-path="url(#clip0_167_1436)">
<mask id="mask0_167_1436" style="mask-type:luminance" maskUnits="userSpaceOnUse" x="0" y="0" width="140" height="100">
<path d="M140 0H0V99.3243H140V0Z" fill="white"/>
</mask>
<g mask="url(#mask0_167_1436)">
<path d="M72.0308 27.392C69.7885 27.482 67.5519 27.7078 65.3261 27.9863C58.0855 28.8922 50.946 30.7243 44.1382 33.3459C38.2547 35.6116 32.6031 38.4715 27.2151 41.7398C18.362 47.1095 10.2931 53.6183 2.68018 60.6126C10.9863 53.6931 19.7708 47.322 29.3631 42.2923C39.9203 36.7568 51.4502 32.9703 63.3554 31.9173C68.3688 31.474 73.5132 31.3596 78.4642 32.3761C80.5616 32.8068 82.6217 33.4365 84.5536 34.3677C85.923 35.0277 87.3364 35.7564 88.4952 36.7554C89.9493 38.0094 91.0855 39.8442 91.1435 41.8022C91.1616 42.4011 91.0781 42.9967 90.9247 43.5749C90.6914 44.4545 90.3104 45.2943 89.8506 46.0774C89.1369 47.293 88.2336 48.3934 87.2647 49.4141C85.6157 51.1515 83.7398 52.6497 81.7905 54.0334C80.6627 54.8045 80.3794 56.3564 81.1649 57.5055C81.9503 58.6543 83.5092 58.965 84.637 58.1936C87.5243 56.4311 90.3057 54.4498 92.645 51.9893C94.1055 50.4535 95.3851 48.7127 96.2633 46.7761C96.903 45.3651 97.321 43.8415 97.4105 42.2923C97.4672 41.3007 97.3881 40.311 97.1706 39.3414C96.4976 36.3427 94.639 34.0671 92.2386 32.2406C91.4205 31.6182 90.5696 31.0383 89.6631 30.5514C87.0014 29.1223 84.0278 28.3502 81.0608 27.8716C79.8272 27.6727 78.5846 27.5369 77.3381 27.4545C75.5716 27.338 73.7995 27.321 72.0308 27.392Z" fill="white"/>
<path d="M137.325 38.7054C129.019 45.625 120.224 52.0067 110.631 57.0364C100.075 62.5716 88.5447 66.3584 76.6395 67.4111C71.6262 67.8546 66.492 67.969 61.5411 66.9523C59.4436 66.5219 57.3729 65.8919 55.441 64.961C54.0716 64.3007 52.6689 63.5723 51.51 62.5729C50.0559 61.3194 48.9094 59.4845 48.851 57.5262C48.8334 56.9276 48.9168 56.3214 49.0699 55.7431C49.3035 54.8636 49.6949 54.0344 50.1543 53.2513C50.8684 52.0354 51.7613 50.925 52.7299 49.9039C54.3789 48.1665 56.2655 46.679 58.2147 45.2953C59.3425 44.5242 59.6155 42.9617 58.8297 41.8125C58.0442 40.6637 56.496 40.3637 55.3682 41.1348C52.481 42.8976 49.6996 44.8786 47.3602 47.339C45.8994 48.8749 44.6095 50.616 43.7313 52.5526C43.0916 53.9633 42.6839 55.4765 42.5948 57.0257C42.5377 58.0174 42.6068 59.0177 42.8244 59.987C43.497 62.986 45.3556 65.251 47.7563 67.0774C48.5744 67.7001 49.425 68.28 50.3319 68.7668C52.9932 70.1959 55.9775 70.968 58.9445 71.4465C60.178 71.6453 61.4203 71.7918 62.6669 71.8739C64.4336 71.9907 66.2054 72.0077 67.9745 71.9366C70.2167 71.8465 72.453 71.6207 74.6789 71.342C81.9194 70.4365 89.0486 68.6043 95.8564 65.9827C101.74 63.7171 107.392 60.8465 112.78 57.5783C121.633 52.2086 129.712 45.7001 137.325 38.7054Z" fill="white"/>
<path d="M65.9878 49.5225C65.9878 47.1705 67.7843 45.2639 70.0001 45.2639C72.216 45.2639 74.0125 47.1705 74.0125 49.5225C74.0125 51.8745 72.216 53.7814 70.0001 53.7814C67.7843 53.7814 65.9878 51.8745 65.9878 49.5225Z" fill="white" stroke="white" stroke-width="3" stroke-miterlimit="10" stroke-linejoin="round"/>
</g>
</g>
<defs>
<clipPath id="clip0_167_1436">
<rect width="140" height="99.3243" fill="white"/>
</clipPath>
</defs>
</svg>
