<svg width="140" height="100" viewBox="0 0 140 100" fill="none" xmlns="http://www.w3.org/2000/svg">
<g clip-path="url(#clip0_167_1784)">
<mask id="mask0_167_1784" style="mask-type:luminance" maskUnits="userSpaceOnUse" x="0" y="0" width="140" height="100">
<path d="M140 0H0V99.3243H140V0Z" fill="white"/>
</mask>
<g mask="url(#mask0_167_1784)">
<path d="M72.0309 27.392C69.7886 27.4819 67.552 27.7078 65.3261 27.9863C58.0856 28.8922 50.9461 30.7243 44.1383 33.3458C38.2548 35.6116 32.6032 38.4715 27.2152 41.7397C18.3621 47.1094 10.2932 53.6183 2.68027 60.6126C10.9864 53.693 19.7709 47.322 29.3632 42.2923C39.9204 36.7568 51.4503 32.9702 63.3555 31.9173C68.3689 31.474 73.5133 31.3596 78.4643 32.3761C80.5617 32.8067 82.6218 33.4364 84.5537 34.3677C85.9231 35.0277 87.3365 35.7564 88.4953 36.7554C89.9494 38.0093 91.0856 39.8442 91.1436 41.8021C91.1616 42.4011 91.0782 42.9967 90.9247 43.5749C90.6915 44.4544 90.3105 45.2943 89.8507 46.0774C89.137 47.293 88.2337 48.3934 87.2647 49.4141C85.6158 51.1515 83.7399 52.6496 81.7906 54.0334C80.6628 54.8045 80.3795 56.3564 81.165 57.5055C81.9504 58.6543 83.5093 58.965 84.6371 58.1935C87.5243 56.4311 90.3058 54.4498 92.6451 51.9893C94.1056 50.4534 95.3852 48.7127 96.2634 46.7761C96.9031 45.365 97.3211 43.8415 97.4106 42.2923C97.4673 41.3006 97.3882 40.311 97.1706 39.3413C96.4976 36.3427 94.6391 34.0671 92.2387 32.2406C91.4206 31.6182 90.5697 31.0382 89.6631 30.5514C87.0015 29.1223 84.0278 28.3502 81.0609 27.8716C79.8273 27.6727 78.5847 27.5368 77.3382 27.4545C75.5717 27.3379 73.7996 27.321 72.0309 27.392Z" fill="#484B6A"/>
<path d="M137.325 38.7053C129.019 45.6249 120.224 52.0066 110.632 57.0363C100.075 62.5715 88.545 66.3583 76.6398 67.411C71.6264 67.8545 66.4923 67.9689 61.5413 66.9522C59.4439 66.5218 57.3732 65.8918 55.4412 64.9609C54.0719 64.3006 52.6691 63.5722 51.5103 62.5729C50.0562 61.3193 48.9097 59.4844 48.8513 57.5261C48.8336 56.9275 48.917 56.3213 49.0702 55.743C49.3038 54.8635 49.6951 54.0343 50.1546 53.2512C50.8687 52.0353 51.7616 50.9249 52.7302 49.9039C54.3792 48.1665 56.2657 46.679 58.215 45.2952C59.3428 44.5241 59.6157 42.9616 58.83 41.8124C58.0445 40.6636 56.4963 40.3636 55.3685 41.1348C52.4813 42.8975 49.6998 44.8785 47.3605 47.339C45.8997 48.8748 44.6097 50.6159 43.7315 52.5525C43.0919 53.9633 42.6841 55.4764 42.5951 57.0256C42.538 58.0173 42.6071 59.0176 42.8246 59.9869C43.4973 62.9859 45.3558 65.2509 47.7565 67.0774C48.5747 67.7 49.4252 68.2799 50.3321 68.7667C52.9934 70.1958 55.9778 70.9679 58.9447 71.4464C60.1783 71.6453 61.4205 71.7918 62.6671 71.8738C64.4339 71.9906 66.2057 72.0076 67.9748 71.9366C70.217 71.8465 72.4532 71.6206 74.6791 71.342C81.9197 70.4364 89.0488 68.6042 95.8566 65.9826C101.74 63.717 107.392 60.8465 112.78 57.5782C121.633 52.2085 129.713 45.7 137.325 38.7053Z" fill="#484B6A"/>
<path d="M65.9877 49.5225C65.9877 47.1705 67.7841 45.2639 70 45.2639C72.2159 45.2639 74.0124 47.1705 74.0124 49.5225C74.0124 51.8745 72.2159 53.7814 70 53.7814C67.7841 53.7814 65.9877 51.8745 65.9877 49.5225Z" fill="#484B6A" stroke="#484B6A" stroke-width="3" stroke-miterlimit="10" stroke-linejoin="round"/>
</g>
</g>
<defs>
<clipPath id="clip0_167_1784">
<rect width="140" height="99.3243" fill="white"/>
</clipPath>
</defs>
</svg>
